<svg width="81" height="58" viewBox="0 0 81 58" xmlns="http://www.w3.org/2000/svg">
<path d="M47.1418 25.8948H54.2051C54.3689 25.8948 54.5261 25.8293 54.6423 25.7125C54.7585 25.5958 54.8242 25.4373 54.8251 25.2718V18.9168C54.8251 18.7506 54.7598 18.5913 54.6435 18.4738C54.5272 18.3564 54.3695 18.2904 54.2051 18.2904H47.1418C46.9782 18.2904 46.8214 18.356 46.7057 18.4729C46.5901 18.5897 46.5251 18.7482 46.5251 18.9134V25.2718C46.5251 25.6153 46.8018 25.8948 47.1418 25.8948ZM37.2951 7.60779H44.3551C44.5195 7.60779 44.6772 7.5418 44.7935 7.42433C44.9098 7.30685 44.9751 7.14752 44.9751 6.98139V0.623037C44.9742 0.457489 44.9085 0.299024 44.7923 0.182278C44.6762 0.0655312 44.519 -2.39259e-06 44.3551 0H37.2951C37.1316 0 36.9747 0.0656418 36.8591 0.182484C36.7434 0.299326 36.6784 0.457798 36.6784 0.623037V6.98139C36.6784 7.3249 36.9518 7.60443 37.2951 7.60443V7.60779ZM37.2951 16.7513H44.3551C44.5193 16.7504 44.6765 16.6841 44.7925 16.5668C44.9086 16.4496 44.9742 16.2907 44.9751 16.1249V9.7699C44.9742 9.60436 44.9085 9.44589 44.7923 9.32914C44.6762 9.2124 44.519 9.14686 44.3551 9.14687H37.2951C37.1316 9.14687 36.9747 9.21251 36.8591 9.32935C36.7434 9.44619 36.6784 9.60466 36.6784 9.7699V16.1249C36.6784 16.4684 36.9518 16.7479 37.2951 16.7513ZM27.5284 16.7513H34.5951C34.7584 16.7495 34.9144 16.6827 35.0292 16.5655C35.144 16.4482 35.2084 16.2899 35.2084 16.1249V9.7699C35.2084 9.60466 35.1435 9.44619 35.0278 9.32935C34.9122 9.21251 34.7553 9.14687 34.5918 9.14687H27.5318C27.3682 9.14687 27.2114 9.21251 27.0957 9.32935C26.9801 9.44619 26.9151 9.60466 26.9151 9.7699V16.1249C26.9151 16.4684 27.1918 16.7479 27.5318 16.7513H27.5284ZM17.6518 16.7513H24.7151C24.879 16.7504 25.0358 16.684 25.1514 16.5666C25.2669 16.4493 25.3318 16.2904 25.3318 16.1249V9.7699C25.3318 9.60466 25.2668 9.44619 25.1512 9.32935C25.0355 9.21251 24.8787 9.14687 24.7151 9.14687H17.6518C17.4879 9.14686 17.3307 9.2124 17.2146 9.32914C17.0984 9.44589 17.0327 9.60436 17.0318 9.7699V16.1249C17.0318 16.4684 17.3118 16.7479 17.6518 16.7513ZM37.2951 25.8948H44.3551C44.519 25.8948 44.6762 25.8293 44.7923 25.7125C44.9085 25.5958 44.9742 25.4373 44.9751 25.2718V18.9168C44.9751 18.7506 44.9098 18.5913 44.7935 18.4738C44.6772 18.3564 44.5195 18.2904 44.3551 18.2904H37.2951C37.1316 18.2904 36.9747 18.356 36.8591 18.4729C36.7434 18.5897 36.6784 18.7482 36.6784 18.9134V25.2718C36.6784 25.6153 36.9518 25.8948 37.2951 25.8948ZM27.5284 25.8948H34.5951C34.7581 25.8939 34.9141 25.8279 35.029 25.7111C35.1439 25.5944 35.2084 25.4364 35.2084 25.2718V18.9168C35.2089 18.835 35.1934 18.7538 35.1628 18.6781C35.1322 18.6023 35.0871 18.5334 35.0302 18.4752C34.9732 18.4171 34.9055 18.3708 34.8308 18.3391C34.7562 18.3074 34.6761 18.2908 34.5951 18.2904H27.5284C27.3655 18.2913 27.2095 18.3573 27.0945 18.474C26.9796 18.5908 26.9151 18.7487 26.9151 18.9134V25.2718C26.9151 25.6153 27.1918 25.8948 27.5318 25.8948H27.5284ZM17.6518 25.8948H24.7151C24.8787 25.8948 25.0355 25.8292 25.1512 25.7123C25.2668 25.5955 25.3318 25.437 25.3318 25.2718V18.9168C25.3322 18.835 25.3167 18.7538 25.2861 18.6781C25.2555 18.6023 25.2105 18.5334 25.1535 18.4752C25.0966 18.4171 25.0288 18.3708 24.9542 18.3391C24.8795 18.3074 24.7994 18.2908 24.7184 18.2904H17.6518C17.4873 18.2904 17.3296 18.3564 17.2134 18.4738C17.0971 18.5913 17.0318 18.7506 17.0318 18.9168V25.2718C17.0318 25.6153 17.3118 25.8948 17.6518 25.8948ZM7.91846 25.8948H14.9851C15.1481 25.8939 15.3041 25.8279 15.419 25.7111C15.5339 25.5944 15.5985 25.4364 15.5985 25.2718V18.9168C15.5989 18.835 15.5834 18.7538 15.5528 18.6781C15.5222 18.6023 15.4771 18.5334 15.4202 18.4752C15.3632 18.4171 15.2955 18.3708 15.2209 18.3391C15.1462 18.3074 15.0661 18.2908 14.9851 18.2904H7.91846C7.75548 18.2913 7.59949 18.3573 7.48456 18.474C7.36963 18.5908 7.30512 18.7487 7.30512 18.9134V25.2718C7.30512 25.6153 7.57846 25.8948 7.92179 25.8948H7.91846ZM79.7417 21.8939C79.5251 21.7221 77.5017 20.1763 73.2284 20.1763C72.1017 20.1797 70.9751 20.2773 69.8617 20.4693C69.0351 14.7441 64.3517 11.9489 64.1418 11.8276L62.9951 11.1574L62.2418 12.2587C61.2951 13.7338 60.6084 15.3638 60.2017 17.0746C59.4351 20.3413 59.9018 23.4127 61.5451 26.0362C59.5618 27.1543 56.3784 27.4271 55.7318 27.4507H3.03513C2.37351 27.4516 1.73914 27.7171 1.27068 28.1891C0.802223 28.6611 0.537771 29.3013 0.535128 29.9698C0.473401 34.6336 1.25511 39.2696 2.84179 43.6497C4.65846 48.4589 7.35846 52.0018 10.8751 54.1706C14.8085 56.6055 21.2084 57.9998 28.4584 57.9998C31.7351 58.0099 35.0018 57.7101 38.2251 57.1039C42.7012 56.2731 47.0084 54.6921 50.9684 52.4261C54.2351 50.5166 57.1684 48.0884 59.6684 45.2325C63.8417 40.457 66.3284 35.1393 68.1784 30.4143H68.9151C73.4884 30.4143 76.2984 28.5654 77.8484 27.0163C78.8784 26.0295 79.6817 24.8272 80.2051 23.4936L80.5317 22.5237L79.7417 21.8939Z" />
</svg>
