<svg width="66" height="70" viewBox="0 0 66 70"  xmlns="http://www.w3.org/2000/svg">
<path fill-rule="evenodd" clip-rule="evenodd" d="M65.5312 18.7472L33.0312 0L0.53125 18.7472V51.2531L5.56295 54.1554L15.8445 50.0418C18.6773 48.9085 20.5315 46.1886 20.5315 43.1667V17.695H25.5315V43.1667C25.5315 48.2035 22.4412 52.7359 17.7198 54.6251L11.0225 57.305L33.0312 70L65.5312 51.2531V18.7472ZM30.5312 27.5837C30.5312 22.1223 35.0084 17.695 40.5312 17.695H46.3648C51.4273 17.695 55.5312 21.7534 55.5312 26.7596V27.5837H50.5312V26.7596C50.5312 24.4841 48.6658 22.6393 46.3648 22.6393H40.5312C37.7699 22.6393 35.5312 24.853 35.5312 27.5837C35.5312 30.3143 37.7699 32.528 40.5312 32.528H45.5312C51.0542 32.528 55.5312 36.9553 55.5312 42.4166C55.5312 47.8781 51.0542 52.3053 45.5312 52.3053H40.5312C35.0084 52.3053 30.5312 47.8781 30.5312 42.4166H35.5312C35.5312 45.1473 37.7699 47.3609 40.5312 47.3609H45.5312C48.2928 47.3609 50.5312 45.1473 50.5312 42.4166C50.5312 39.686 48.2928 37.4723 45.5312 37.4723H40.5312C35.0084 37.4723 30.5312 33.045 30.5312 27.5837Z"/>
</svg>
