<svg width="67" height="80" viewBox="0 0 67 80" fill="none" xmlns="http://www.w3.org/2000/svg">
<path d="M35.2128 0C34.6954 0 34.1614 0.0266648 33.6139 0.069995C19.5043 1.17992 23.2462 16.0922 23.0326 21.0618C22.7755 24.7049 22.0312 27.5747 19.5244 31.1311C16.5702 34.6342 12.4245 40.2971 10.4584 46.2C9.53046 48.9732 9.08985 51.813 9.50042 54.4961C9.37024 54.6094 9.24674 54.7227 9.12991 54.9461C8.26203 55.8393 7.63116 56.9492 6.92017 57.7425C6.25591 58.4058 5.30125 58.6325 4.2598 59.0758C3.21502 59.5291 2.06342 59.9724 1.3758 61.3456C1.07538 61.9722 0.921831 62.6555 0.935183 63.3488C0.935183 64.0121 1.02531 64.6854 1.11877 65.1353C1.31237 66.4652 1.50598 67.5651 1.24895 68.3684C0.421136 70.6349 0.317658 72.1881 0.898466 73.3181C1.47927 74.4313 2.68428 74.8813 4.03282 75.3213C6.73992 75.9879 10.4083 75.7712 13.2957 77.3178C16.3867 78.8743 19.5244 79.5543 22.0278 78.8843C23.7836 78.501 25.2657 77.3411 26.0601 75.7346C28.0195 75.7246 30.1658 74.838 33.6039 74.6213C35.9372 74.428 38.8579 75.5112 42.2092 75.2846C42.2927 75.7346 42.4195 75.9479 42.5897 76.3979L42.5998 76.4079C43.9049 79.001 46.3149 80.1809 48.8885 79.9776C51.4621 79.7776 54.2026 78.1911 56.4223 75.6246C58.5286 73.0748 62.0401 72.0115 64.36 70.6149C65.5216 69.9517 66.4596 69.0517 66.5264 67.7718C66.6031 66.4386 65.8621 65.0653 64.143 63.1821V62.8588L64.133 62.8488C63.5656 62.1822 63.2985 61.0656 63.0048 59.7624C62.7211 58.4258 62.3973 57.1426 61.3625 56.276H61.3525C61.1556 56.096 60.9419 56.0526 60.725 55.826C60.538 55.6993 60.3211 55.6193 60.0907 55.6127C61.5294 51.353 60.972 47.1133 59.5133 43.3002C57.7341 38.6006 54.6231 34.5075 52.2532 31.6911C49.5962 28.3413 46.9925 25.1682 47.0426 20.4619C47.1327 13.289 47.8337 0.0199986 35.2128 0V0ZM36.9786 11.3492H37.022C37.733 11.3492 38.3438 11.5558 38.9714 12.0091C39.6089 12.4591 40.0729 13.1157 40.4368 13.7857C40.7872 14.6489 40.9642 15.3156 40.9909 16.1988C40.9909 16.1322 41.0109 16.0655 41.0109 16.0022V16.3488C41.0042 16.3255 40.9975 16.2988 40.9975 16.2788L40.9842 16.1988C40.9775 17.0088 40.8073 17.8087 40.4835 18.552C40.3266 18.9686 40.0863 19.3519 39.7725 19.6686C39.6757 19.6153 39.5822 19.5686 39.4788 19.5286C39.1283 19.3786 38.8145 19.3153 38.5274 19.0853C38.2904 18.992 38.0434 18.9153 37.7964 18.8653C37.96 18.6687 38.2804 18.422 38.4039 18.2054C38.5808 17.7787 38.6776 17.3254 38.6977 16.8655V16.8021C38.7043 16.3522 38.6376 15.8989 38.4941 15.4689C38.3438 15.0189 38.1569 14.7989 37.8832 14.3556C37.6028 14.1357 37.3258 13.9157 36.992 13.9157H36.9386C36.6281 13.9157 36.3511 14.0157 36.064 14.3556C35.7469 14.6689 35.5099 15.0456 35.3797 15.4689C35.2028 15.8922 35.0993 16.3488 35.0793 16.8021V16.8655C35.086 17.1621 35.106 17.4621 35.1461 17.7554C34.5018 17.5321 33.684 17.3054 33.1199 17.0821C33.0865 16.8655 33.0665 16.6421 33.0598 16.4188V16.3522C33.0331 15.4722 33.2034 14.599 33.5605 13.789C33.8342 13.0591 34.3349 12.4358 34.9959 12.0125C35.5667 11.5825 36.2609 11.3492 36.9786 11.3492ZM27.0915 11.5458H27.2117C27.6857 11.5458 28.113 11.7058 28.5436 11.9958C29.0309 12.4258 29.4248 12.9557 29.6918 13.5457C29.9922 14.209 30.1625 14.8823 30.2025 15.7689V15.7822C30.2259 16.2288 30.2226 16.4522 30.1959 16.6688V16.9355C30.0957 16.9588 30.0089 16.9954 29.9188 17.0154C29.4114 17.1988 29.0042 17.4654 28.607 17.6821C28.647 17.3854 28.6504 17.0854 28.617 16.7921V16.7421C28.5769 16.2988 28.4868 16.0788 28.3433 15.6322C28.2398 15.2922 28.0495 14.9889 27.7892 14.7423C27.6256 14.5923 27.4053 14.5156 27.1783 14.529H27.1082C26.8712 14.549 26.6743 14.6656 26.4874 14.9689C26.2737 15.2256 26.1369 15.5389 26.0868 15.8689C25.9967 16.2288 25.97 16.5988 26.01 16.9721V17.0188C26.0501 17.4687 26.1335 17.6887 26.2804 18.132C26.4306 18.5787 26.6042 18.7987 26.8312 19.0253C26.8679 19.0553 26.9013 19.0853 26.9447 19.1053C26.711 19.2953 26.5541 19.3386 26.3572 19.5586C26.2337 19.6519 26.0901 19.7586 25.9199 19.7852C25.5728 19.3686 25.2657 18.9186 25.002 18.4453C24.6815 17.7454 24.5146 16.9854 24.4846 16.2222C24.4278 15.4689 24.5213 14.7156 24.7516 13.9957C24.9352 13.339 25.259 12.7324 25.6963 12.2125C26.1235 11.7692 26.5641 11.5458 27.0915 11.5458ZM31.6679 17.2321C32.7728 17.2321 34.1113 17.4487 35.7235 18.562C36.7016 19.2286 37.4693 19.4586 39.2384 20.1219H39.2484C40.0996 20.5752 40.6003 21.0085 40.844 21.4518V21.0152C41.0877 21.5051 41.1044 22.0751 40.8974 22.5817C40.4868 23.6183 39.175 24.7282 37.3458 25.3915V25.3982C36.4512 25.8481 35.6735 26.5081 34.7589 26.9481C33.8376 27.398 32.7961 27.9213 31.3808 27.838C30.8735 27.8647 30.3628 27.788 29.8854 27.6147C29.5182 27.4147 29.1577 27.1947 28.8106 26.9547C28.1597 26.5048 27.5989 25.8481 26.7678 25.4048V25.3882H26.7511C25.4159 24.5682 24.6949 23.6816 24.4612 23.0183C24.2309 22.1251 24.4445 21.4551 25.1054 21.0185C25.8532 20.5685 26.3739 20.1152 26.7177 19.8986C27.0648 19.6519 27.195 19.5586 27.3052 19.4619H27.3118V19.4519C27.876 18.7787 28.7672 17.8887 30.1124 17.4487C30.5764 17.3288 31.0938 17.2321 31.6679 17.2321ZM41.0109 24.3749C42.2092 29.0979 45.0064 35.9574 46.8056 39.2838C47.7603 41.0637 49.6596 44.8135 50.4841 49.3631C51.0048 49.3465 51.5822 49.4231 52.1964 49.5764C54.3528 44.0068 50.3739 38.0206 48.5614 36.3574C47.8237 35.6874 47.787 35.2408 48.1508 35.2408C50.1169 37.0207 52.7071 40.4804 53.6451 44.4301C54.0757 46.2133 54.1758 48.1099 53.7152 49.9964C53.9389 50.0897 54.1658 50.1997 54.3995 50.2197C57.8443 51.9996 59.1161 53.3462 58.5052 55.3427V55.1994C58.3016 55.1894 58.1046 55.1994 57.901 55.1994H57.851C58.355 53.6428 57.2434 52.4496 54.296 51.1197C51.2418 49.7864 48.8017 49.9997 48.3845 52.6696C48.3611 52.8129 48.3444 52.8895 48.3277 53.1195C48.1007 53.1962 47.8637 53.2962 47.6301 53.3328C46.1948 54.2261 45.4203 55.5627 44.9831 57.2892C44.5491 59.0658 44.4156 61.1423 44.2988 63.5188V63.5288C44.2287 64.642 43.728 66.3219 43.234 68.0318C38.227 71.6049 31.284 73.1581 25.3792 69.145C25.0086 68.5018 24.558 67.8985 24.0373 67.3685C23.7903 66.9519 23.4765 66.5786 23.1194 66.2552C23.7269 66.2552 24.2476 66.1586 24.6715 66.0319C25.1555 65.8086 25.5294 65.4053 25.7196 64.9187C26.0801 64.0287 25.7196 62.5955 24.568 61.0423C23.4164 59.4857 21.4604 57.7259 18.5997 55.9726C16.4968 54.6427 15.3085 53.0729 14.7611 51.3197C14.2103 49.5398 14.2837 47.7032 14.711 45.8367C15.5288 42.2703 17.625 38.8039 18.9636 36.6274C19.3207 36.4107 19.0871 37.0773 17.6017 39.8738C16.2798 42.377 13.7931 48.1965 17.1944 52.7196C17.3213 49.4231 18.0556 46.17 19.3541 43.1336C21.2367 38.8739 25.1722 31.4544 25.4826 25.5748C25.6429 25.6948 26.207 26.0248 26.4473 26.2481C27.175 26.6914 27.7157 27.358 28.4167 27.798C29.121 28.468 30.0089 28.9146 31.3408 28.9146C31.471 28.9246 31.5911 28.9346 31.7113 28.9346C33.0832 28.9346 34.1447 28.488 35.0359 28.0413C36.0039 27.5947 36.775 26.9281 37.506 26.7081H37.5227C39.0815 26.2581 40.3133 25.3682 41.0109 24.3749ZM48.3077 54.2328C48.4312 56.236 49.4526 58.3825 51.2518 58.8224C53.2145 59.2691 56.0384 57.7125 57.2301 56.2726L57.9344 56.2426C58.9859 56.216 59.8604 56.276 60.7617 57.1326L60.7717 57.1426C61.466 57.8058 61.7898 58.9124 62.0768 60.0624C62.3606 61.3989 62.5909 62.6622 63.4421 63.6154C65.0643 65.372 65.5951 66.6352 65.565 67.4152L65.575 67.3952V67.4552L65.565 67.4152C65.5149 68.2884 64.9475 68.7351 63.9027 69.3984C61.7998 70.7349 58.0746 71.7715 55.7013 74.6313C53.6384 77.0878 51.1249 78.4277 48.9052 78.601C46.6888 78.7777 44.7761 77.9344 43.6512 75.6079L43.6345 75.5979C42.9336 74.2613 43.234 72.1815 43.8215 69.965C44.4089 67.7385 45.2501 65.482 45.3669 63.6388C45.4904 61.2589 45.6206 59.1891 46.0178 57.5925C46.4184 56.0426 47.0459 54.9361 48.1575 54.3128L48.3077 54.2394V54.2328ZM12.2075 54.3961H12.2409C12.4178 54.3961 12.5914 54.4128 12.765 54.4428C14.02 54.6261 15.1216 55.5527 16.1797 56.9492L19.2173 62.4955L19.2273 62.5055C20.0384 64.2821 21.7441 66.0519 23.1961 67.9651C24.6448 69.9583 25.7664 71.7349 25.6295 73.1981V73.2181C25.4392 75.6979 24.0306 77.0445 21.8743 77.5311C19.7213 77.9811 16.8006 77.5378 13.8798 75.9846C10.6487 74.198 6.81002 74.4213 4.34325 73.978C3.11154 73.758 2.30375 73.3081 1.9299 72.6415C1.55938 71.9782 1.55271 70.6383 2.34047 68.5417V68.5318L2.34715 68.5218C2.73769 67.4085 2.44729 66.0119 2.25702 64.792C2.07343 63.4554 1.97997 62.4289 2.40055 61.6589C2.93463 60.5457 3.72239 60.329 4.70042 59.8824C5.68512 59.4324 6.84006 59.2091 7.758 58.3191H7.76468V58.3091C8.6192 57.4159 9.25007 56.306 9.99444 55.516C10.6287 54.8461 11.2629 54.3961 12.2075 54.3961ZM36.1041 24.1516C34.6521 24.8216 32.9497 25.9348 31.1372 25.9348C29.328 25.9348 27.8993 25.0449 26.8679 24.3816C26.3505 23.9349 25.9333 23.4883 25.6195 23.265C25.0721 22.8184 25.1388 22.1517 25.3725 22.1517C25.7363 22.2051 25.8031 22.6017 26.0367 22.8217C26.3572 23.0417 26.7544 23.485 27.2417 23.9316C28.2131 24.5982 29.5116 25.4882 31.1338 25.4882C32.7527 25.4882 34.6487 24.5982 35.8003 23.9349C36.4512 23.485 37.2857 22.8217 37.9633 22.3784C38.484 21.9218 38.4607 21.4851 38.8946 21.4851C39.3252 21.5385 39.0081 21.9318 38.4039 22.595C37.7998 23.045 36.8651 23.7116 36.1007 24.1549V24.1516H36.1041ZM32.4924 18.872V18.7987C32.4724 18.7353 32.5358 18.6587 32.5892 18.632C32.8362 18.4887 33.19 18.542 33.4571 18.6453C33.6673 18.6453 33.9911 18.8686 33.9577 19.0953C33.9377 19.2586 33.674 19.3153 33.5071 19.3153C33.3235 19.3153 33.2 19.172 33.0365 19.0886C32.8629 19.0286 32.5491 19.062 32.4924 18.872ZM30.6532 18.872C30.5864 19.0653 30.276 19.0353 30.0991 19.092C29.9422 19.1753 29.812 19.3186 29.6351 19.3186C29.4648 19.3186 29.1978 19.2553 29.1778 19.092C29.1477 18.872 29.4715 18.6487 29.6785 18.6487C29.9488 18.5453 30.2927 18.492 30.543 18.632C30.6064 18.662 30.6632 18.732 30.6431 18.7987V18.8686H30.6532V18.872Z" />
</svg>
