<svg width="55" height="68" viewBox="0 0 55 68" fill="none" xmlns="http://www.w3.org/2000/svg">
<path fill-rule="evenodd" clip-rule="evenodd" d="M30.8045 0.817342C30.5226 0.310476 29.9926 0 29.4209 0H16.624C15.4884 0 14.439 0.613017 13.8699 1.61082C13.2982 2.60863 13.293 3.83731 13.8568 4.84043C18.4383 13.0209 27.7214 29.5908 32.8799 38.7993C35.1458 42.8436 39.3749 45.3435 43.9538 45.3435H53.0098C53.5763 45.3435 54.101 45.0356 54.3856 44.5367C54.6701 44.0378 54.6727 43.4248 54.3934 42.9232C49.6187 34.3968 33.7127 6.00541 30.8045 0.817342Z" fill="#97A1FD"/>
<path fill-rule="evenodd" clip-rule="evenodd" d="M21.723 28.9709C19.4571 24.9266 15.228 22.4268 10.6491 22.4268H1.59308C1.02659 22.4268 0.501899 22.7346 0.21735 23.2335C-0.0698102 23.7324 -0.0724284 24.3481 0.20951 24.8496C4.9842 33.3735 20.8902 61.7659 23.7984 66.954C24.0803 67.4608 24.6103 67.7713 25.182 67.7713H37.9789C39.1144 67.7713 40.1613 67.1583 40.733 66.1605C41.3021 65.1627 41.3073 63.934 40.7461 62.9309C36.1646 54.7494 26.8815 38.1794 21.723 28.9709Z" fill="#4C5EFE"/>
</svg>
