<svg width="72" height="72" viewBox="0 0 72 72" fill="none" xmlns="http://www.w3.org/2000/svg">
<path d="M42.2689 0.461914C41.7549 0.461914 41.2766 0.571837 40.834 0.720382C41.7728 1.34427 42.2897 2.17612 42.5452 3.11492C42.566 3.24267 42.6016 3.33477 42.6195 3.46251C42.6415 3.57217 42.6544 3.68346 42.6581 3.79525C42.7294 5.41439 42.2332 5.61938 41.8856 6.57601C41.3509 7.80893 41.4994 9.13395 42.1411 10.2005C42.1999 10.3435 42.2736 10.4799 42.361 10.6075C41.6628 5.94915 45.5488 5.25099 46.2647 3.79525C46.3212 2.52371 45.2725 1.67701 44.4436 1.08877C43.7922 0.67947 43.0382 0.463149 42.2689 0.464885V0.461914ZM48.1245 1.51064C48.0532 1.93548 48.1067 1.82555 48.0889 2.0454C48.071 2.19394 48.071 2.37814 48.0532 2.52371C48.0146 2.67226 47.979 2.8208 47.9225 2.96638C47.8869 3.11492 47.8334 3.26346 47.774 3.40904L47.5749 3.8309C47.5155 3.90518 47.4828 3.97945 47.4264 4.05372L47.3164 4.21712C47.2288 4.3432 47.1366 4.46607 47.0401 4.58551C46.9302 4.6984 46.8381 4.82615 46.7074 4.91825V4.93608C46.5975 5.02817 46.4876 5.1381 46.3568 5.23317C45.9706 5.52728 45.5309 5.74713 45.1239 6.02342C44.9962 6.11255 44.8655 6.18979 44.7555 6.29972C44.6305 6.38763 44.5133 6.48602 44.405 6.59383C44.2772 6.70376 44.1851 6.81368 44.0752 6.9444C43.9831 7.05432 43.8732 7.18207 43.7989 7.31279C43.7064 7.43719 43.6202 7.56608 43.5404 7.69901C43.4662 7.84755 43.4127 7.9753 43.3384 8.12087C43.282 8.26942 43.2285 8.39717 43.1899 8.54571C43.1412 8.69744 43.0985 8.85106 43.0621 9.0062C43.0443 9.08047 43.0443 9.17257 43.0265 9.24387C43.0057 9.31814 43.0057 9.39241 42.9879 9.46669C42.9879 9.61523 42.97 9.77863 42.97 9.92717C42.97 10.0371 42.97 10.147 42.9879 10.2569C42.9879 10.4055 43.0057 10.554 43.0443 10.7174C43.0621 10.866 43.0978 11.0145 43.1334 11.1631C43.1928 11.3086 43.2285 11.4542 43.282 11.6028C43.3206 11.6919 43.3741 11.787 43.4127 11.8612L39.1762 10.2213C38.4602 10.0193 37.7591 9.83508 37.0401 9.66871L35.8815 9.39241C34.7763 9.17257 33.6533 9.0062 32.5303 8.89627C32.4917 8.89627 32.4739 8.87845 32.4382 8.87845C30.5406 8.68836 28.6301 8.66351 26.7282 8.80418C25.6052 8.87845 24.4822 9.02402 23.3592 9.20822C22.5246 9.35201 21.6952 9.52443 20.8725 9.72515L20.0437 9.945C19.7703 10.0549 19.5089 10.1827 19.2534 10.2956L18.6444 10.5719C18.6087 10.5897 18.5731 10.5897 18.5552 10.6075C18.3681 10.6996 18.2047 10.7739 18.0383 10.866C17.7991 10.9715 17.5651 11.0885 17.3372 11.2165C17.2094 11.27 17.0817 11.3443 16.9688 11.4007C16.916 11.4335 16.8615 11.4632 16.8054 11.4899C16.639 11.5849 16.4726 11.677 16.3241 11.7691C16.1725 11.8529 16.0257 11.9452 15.8844 12.0454C15.7537 12.1345 15.6259 12.2088 15.516 12.3009C15.4982 12.3217 15.4774 12.3217 15.4596 12.3395C15.3496 12.4138 15.2219 12.5059 15.109 12.598L15.0733 12.6337L14.7971 12.8535C14.7614 12.8743 14.7228 12.9099 14.6871 12.9278C14.595 13.002 14.5029 13.0941 14.4108 13.1654C14.393 13.2041 14.3544 13.2249 14.3366 13.2397C14.2266 13.3526 14.1167 13.4447 14.0068 13.5546C13.986 13.5546 13.986 13.5725 13.9682 13.5903C13.8537 13.6904 13.7437 13.7954 13.6384 13.9052C13.6176 13.923 13.6176 13.9408 13.5998 13.9408C13.5031 14.0355 13.4109 14.1346 13.3235 14.2379C13.2878 14.2736 13.2344 14.3092 13.1957 14.3449C13.0971 14.4616 12.9919 14.5727 12.8808 14.6776C12.863 14.7133 12.8274 14.7341 12.8095 14.7668C12.661 14.9153 12.5332 15.0638 12.3847 15.2124L12.3312 15.2659C12.0341 15.5808 11.7222 15.8927 11.3894 16.169C11.0597 16.4661 10.7091 16.7394 10.3585 16.9801C9.65467 17.4828 8.89502 17.9025 8.09472 18.2308C7.70851 18.3972 7.3015 18.5457 6.89745 18.6735C6.12502 18.8398 5.3318 19.1518 4.65146 19.2082C4.50292 19.2082 4.33952 19.2439 4.19097 19.2617L3.73048 19.3716L3.28782 19.538C3.13928 19.5945 2.9937 19.6687 2.84813 19.74C2.71741 19.8321 2.57184 19.9064 2.44112 19.9985C2.31004 20.0934 2.18684 20.1987 2.07273 20.3134C1.94498 20.4025 1.81426 20.5333 1.70434 20.6432C1.59441 20.7709 1.48449 20.8809 1.39239 21.0116C1.30029 21.1601 1.19037 21.2879 1.1161 21.4364C1.01933 21.5702 0.932924 21.7113 0.857632 21.8583C0.783359 22.0246 0.709087 22.1732 0.655611 22.3366C0.599164 22.4851 0.545688 22.6515 0.489241 22.8149C0.45359 22.9634 0.414969 23.112 0.400114 23.2605C0.400114 23.2754 0.379318 23.2962 0.379318 23.314C0.343667 23.4804 0.343667 23.7002 0.322871 23.8102C0.305046 23.9409 0.28722 24.0478 0.28722 24.1785C0.283802 24.4989 0.359306 24.8152 0.507066 25.0995V25.1173C0.563513 25.2273 0.637786 25.3402 0.712058 25.4501C0.783359 25.56 0.860603 25.6699 0.949729 25.7799C1.04183 25.872 1.15175 25.9848 1.26464 26.0769C1.37199 26.1846 1.48827 26.283 1.61224 26.3711C2.0549 26.7573 2.16482 26.885 2.73524 27.1791C2.82733 27.2356 2.91943 27.2712 3.03232 27.3277C3.05015 27.3277 3.06798 27.3455 3.0858 27.3455C3.0858 27.3841 3.0858 27.402 3.10363 27.4376C3.14663 27.7413 3.22644 28.0386 3.3413 28.3229C3.40072 28.4329 3.43637 28.5428 3.48984 28.6527C3.51064 28.6913 3.52846 28.727 3.54926 28.7448C3.62056 28.8933 3.69483 29.0211 3.76613 29.1518L4.04243 29.538C4.13453 29.648 4.24742 29.7757 4.35734 29.8886C4.46727 29.9985 4.57719 30.0906 4.70791 30.2005C4.70791 30.2005 4.72573 30.2184 4.74356 30.2184C4.85348 30.3105 4.9634 30.4026 5.0763 30.4768C5.20441 30.5667 5.33953 30.6462 5.48034 30.7145C5.60809 30.7888 5.75663 30.863 5.90221 30.9195C6.02092 30.9731 6.14421 31.0158 6.2706 31.0472C6.29139 31.0651 6.30922 31.0651 6.34487 31.0829C6.41914 31.1037 6.51124 31.1215 6.58254 31.1393C6.52906 32.1346 6.51124 33.0704 6.65978 33.4032C6.82318 33.7715 7.63424 32.6486 8.44232 31.3592C8.33537 32.6307 8.26109 34.1221 8.44232 34.5648C8.64731 35.0253 9.74951 33.5874 10.7091 32.0039C23.7662 28.9854 35.6795 38.0051 36.9302 50.7502C36.6925 48.7597 34.2415 47.6575 33.1185 47.9338C32.566 49.2945 31.6272 51.0443 30.1179 52.1317C30.2457 50.9136 30.1922 49.6658 29.9338 48.4478C29.5213 50.1433 28.7414 51.7275 27.6491 53.0883C25.9023 53.216 24.1524 52.3693 23.2314 51.0978C23.1571 51.0443 23.1393 50.9344 23.0829 50.8601C23.0294 50.7324 22.973 50.6017 22.9343 50.4739C22.8809 50.3505 22.8439 50.2207 22.8244 50.0877C22.8066 49.957 22.8066 49.8292 22.8066 49.6807V49.4044C22.8286 49.2737 22.8593 49.1447 22.8987 49.0182C22.9373 48.8904 22.973 48.7627 23.0294 48.6319C23.1007 48.5042 23.1571 48.3735 23.2492 48.2457C23.5612 47.3604 23.5612 46.6415 22.9908 46.2196C22.88 46.1473 22.7626 46.0856 22.6402 46.0354C22.5689 46.0176 22.4768 45.9819 22.4025 45.9611L22.254 45.9076C22.1279 45.8668 21.9987 45.836 21.8678 45.8155C21.7423 45.7788 21.6123 45.7598 21.4816 45.7591C21.3478 45.7381 21.2129 45.7262 21.0775 45.7234C20.9854 45.7234 20.8933 45.7413 20.8012 45.7413C20.6636 45.7405 20.5265 45.7595 20.3942 45.7977C20.2665 45.8155 20.1387 45.8334 20.008 45.869C19.8766 45.9043 19.7476 45.9479 19.6218 45.9997C19.494 46.0532 19.3841 46.1097 19.2534 46.1661C19.1435 46.2196 19.0335 46.2939 18.9028 46.3503C14.6129 49.1489 17.1738 55.7027 20.1001 57.6011C18.9949 57.8031 17.8719 58.0408 17.56 58.2814L17.5214 58.3171C18.3146 58.7954 19.1435 59.2024 20.008 59.5529C21.1874 59.9392 22.4382 60.2868 22.9908 60.4353V60.4531C24.5164 60.7664 26.0766 60.8783 27.6313 60.7859C35.7894 60.2155 42.4739 54.0093 43.689 45.8334L43.7989 46.3117C43.8554 46.6444 43.9267 46.995 43.9653 47.3426V47.3604C44.0009 47.5268 44.0187 47.6931 44.0395 47.8417V47.913C44.0574 48.0794 44.0752 48.2457 44.0752 48.3943C44.093 48.5963 44.1108 48.7983 44.1108 49.0003V49.2974C44.1108 49.3866 44.1316 49.4965 44.1316 49.5886C44.1316 49.7015 44.1108 49.8114 44.1108 49.9213V50.1798C44.1108 50.3075 44.093 50.4175 44.093 50.5482C44.093 50.6224 44.093 50.6967 44.0752 50.7858C44.0752 50.9166 44.0574 51.0443 44.0574 51.1929C44.0395 51.2463 44.0395 51.3028 44.0395 51.3563L43.9801 51.7811C43.9801 51.8375 43.9801 51.891 43.9653 51.9475C43.9445 52.1317 43.9088 52.298 43.891 52.4822V52.5179L43.7811 53.0348V53.0883L43.6712 53.5844C43.6712 53.6052 43.6504 53.6438 43.6504 53.6587C43.6165 53.8272 43.5738 53.9938 43.5226 54.1578V54.2113C43.4662 54.3955 43.4127 54.5618 43.3741 54.7282C43.3562 54.746 43.3562 54.7639 43.3562 54.7639L43.1899 55.3165C43.1186 55.5006 43.0621 55.667 42.9879 55.8512C42.9136 56.0354 42.8601 56.2196 42.7858 56.386C42.7116 56.5702 42.6373 56.7336 42.566 56.9207H42.5452C42.4739 57.0841 42.3966 57.2683 42.3075 57.4347C42.292 57.4787 42.2732 57.5214 42.2511 57.5624C42.2332 57.5803 42.2332 57.6011 42.2154 57.6189C40.9976 60.0569 39.2251 62.1754 37.0401 63.8043C36.8916 63.8964 36.746 64.0093 36.5975 64.1192C36.5618 64.1549 36.5083 64.1727 36.4697 64.2083C36.338 64.3057 36.2033 64.3988 36.0657 64.4876L36.1191 64.5975H36.1399L36.9124 64.4876H36.9302C37.4085 64.4133 37.8868 64.3212 38.3651 64.2291C38.4959 64.2113 38.6414 64.1727 38.7722 64.137L39.0306 64.0806C39.1584 64.0628 39.2861 64.0271 39.4168 64.0093C39.5268 63.9707 39.6367 63.9499 39.7466 63.9172C41.5886 63.4715 43.3741 62.8655 45.0883 62.1495C42.1288 66.1805 38.1928 69.3927 33.6503 71.484C35.7716 71.3355 37.8868 70.9879 39.9308 70.3967C47.329 68.2216 53.5774 63.2288 57.3313 56.4929C56.5731 60.7569 54.882 64.8007 52.3788 68.3349C54.1635 67.1577 55.8125 65.7867 57.2957 64.247C61.4173 59.9439 64.1232 54.4824 65.0497 48.5963C65.6736 51.5078 65.8578 54.5084 65.5845 57.4703C78.8762 38.929 66.6867 19.7044 61.5856 14.642C61.5678 14.6034 61.55 14.5855 61.55 14.5499C61.5322 14.5677 61.5322 14.5677 61.5322 14.5855C61.5322 14.5677 61.5322 14.5677 61.5114 14.5499C61.5114 14.7697 61.4935 14.9896 61.4757 15.2124C61.4247 15.6248 61.3632 16.0359 61.2915 16.4453C61.2024 16.8494 61.0895 17.2564 60.9796 17.6634C60.8489 18.0496 60.7033 18.4536 60.5339 18.8398C60.3656 19.2213 60.1823 19.5959 59.9843 19.9628C59.5732 20.6847 59.099 21.3687 58.5672 22.0068C58.2909 22.3366 57.9968 22.6307 57.6997 22.9278C57.5261 23.0866 57.3477 23.2401 57.165 23.3883L56.7431 23.7567C56.4144 24.0161 56.0701 24.2552 55.7122 24.4727C55.3602 24.6993 54.9974 24.9085 54.6248 25.0995C54.2386 25.2837 53.8524 25.4501 53.4662 25.6165C52.6795 25.9156 51.8656 26.1375 51.036 26.279C50.6112 26.3532 50.1893 26.3889 49.7823 26.4275C49.4886 26.4483 49.1943 26.4602 48.8999 26.4632C48.4811 26.4574 48.0628 26.4326 47.6462 26.3889C47.2256 26.3559 46.8077 26.2943 46.3955 26.2047C45.9779 26.1289 45.5659 26.0247 45.1625 25.8927H45.1417C45.5488 25.8541 45.9528 25.8185 46.3598 25.7442C47.1889 25.6005 48.0026 25.3786 48.79 25.0817C49.194 24.9331 49.5803 24.749 49.9487 24.5648C50.3349 24.3806 50.6854 24.1785 51.0538 23.9587C51.4044 23.721 51.752 23.4804 52.0847 23.2219C52.4175 22.9634 52.7294 22.6872 53.0235 22.393C53.3355 22.1167 53.6118 21.8048 53.8881 21.4899C54.1643 21.1601 54.4228 20.8274 54.6605 20.4976C54.6991 20.4412 54.7377 20.3669 54.7734 20.3134C54.9576 20.0163 55.1418 19.7222 55.3081 19.4281C55.7141 18.6952 56.0465 17.924 56.3004 17.1256C56.4311 16.7394 56.5232 16.3354 56.6153 15.9284C56.6896 15.5065 56.7639 15.1025 56.7995 14.6955C56.8352 14.2736 56.8738 13.8488 56.8738 13.4447C56.8738 13.1476 56.853 12.8535 56.8352 12.5594C56.7985 12.147 56.7489 11.7358 56.6866 11.3265C56.615 10.9114 56.5238 10.5 56.4133 10.0935C56.2826 9.70733 56.1548 9.30032 56.0063 8.9141C55.8578 8.52788 55.6765 8.14167 55.4923 7.77328C55.2873 7.40489 55.0853 7.0365 54.8655 6.68593C54.6303 6.34176 54.3846 6.0049 54.1287 5.67583C53.8524 5.36091 53.5761 5.046 53.282 4.73406C53.127 4.576 52.9675 4.42244 52.8037 4.27357C51.9718 3.62888 51.1103 3.02282 50.2428 2.47024C50.1238 2.40151 50.0008 2.34 49.8744 2.28604C49.3282 1.95162 48.7397 1.69183 48.1245 1.51361V1.51064Z" fill="#4C5EFE"/>
</svg>
