<svg width="64" height="56" viewBox="0 0 64 56" fill="none" xmlns="http://www.w3.org/2000/svg">
<path d="M0.685547 27.9396C0.685547 32.6179 5.30288 36.9852 12.5825 39.4469C11.1288 46.6874 12.322 52.5232 16.3072 54.7971C20.4036 57.1343 26.5062 55.5165 32.2985 50.5072C37.9446 55.3143 43.651 57.2061 47.6325 54.9257C51.7249 52.5817 52.9697 46.3501 51.4758 38.8837C59.0579 36.4035 63.2991 32.6795 63.2991 27.9396C63.2991 23.3698 58.6732 19.4163 51.4918 16.9703C53.1 9.19528 51.7374 3.50111 47.5872 1.13324C43.5859 -1.14953 37.8133 0.840138 32.0842 5.77309C26.124 0.537151 20.4083 -1.06145 16.2621 1.31333C12.2648 3.60259 11.1241 9.54443 12.5825 16.919C5.54868 19.3453 0.685547 23.3881 0.685547 27.9396Z" fill="#7E7E7E"/>
<path d="M49.9707 19.3992C49.3938 19.2028 48.7961 19.0169 48.1806 18.8411C48.2818 18.4327 48.3746 18.0295 48.4572 17.6332C49.8122 11.1256 48.9262 5.88314 45.9009 4.15708C43.0001 2.50202 38.2559 4.22768 33.4646 8.35314C33.0038 8.74985 32.5418 9.16985 32.0799 9.61003C31.7722 9.3188 31.465 9.03736 31.1586 8.76816C26.1371 4.35695 21.1038 2.498 18.0815 4.22905C15.1834 5.88891 14.3251 10.8174 15.5449 16.9846C15.6626 17.5803 15.8003 18.1886 15.956 18.8071C15.2437 19.0072 14.556 19.2205 13.8979 19.4474C8.01078 21.4781 4.25098 24.6607 4.25098 27.9619C4.25098 31.3714 8.28713 34.7912 14.4191 36.8648C14.903 37.0285 15.4051 37.1832 15.9226 37.3301C15.7546 37.999 15.6085 38.6545 15.4859 39.2939C14.3229 45.3541 15.2311 50.1661 18.1215 51.8155C21.107 53.5189 26.1175 51.768 30.9964 47.5485C31.382 47.215 31.7691 46.8613 32.1568 46.4905C32.6593 46.9693 33.161 47.4224 33.66 47.8474C38.3859 51.8709 43.0534 53.4956 45.9411 51.8417C48.9237 50.1334 49.893 44.9642 48.6345 38.6749C48.5384 38.1946 48.4266 37.7039 48.301 37.2044C48.6529 37.1015 48.9983 36.9953 49.3351 36.8848C55.7098 34.7951 59.8574 31.417 59.8574 27.9619C59.8574 24.6488 55.9764 21.4447 49.9707 19.3992Z" fill="#7E7E7E"/>
<path d="M48.5886 34.6538C48.2846 34.7534 47.9726 34.8497 47.6546 34.943C46.9509 32.7387 46.0011 30.3949 44.8388 27.9732C45.948 25.6093 46.861 23.2954 47.5451 21.1054C48.1139 21.2683 48.666 21.44 49.198 21.6213C54.3437 23.3739 57.4826 25.9651 57.4826 27.9618C57.4826 30.0885 54.0927 32.8494 48.5886 34.6538ZM46.3048 39.1312C46.8612 41.9122 46.9407 44.4266 46.5721 46.3922C46.2409 48.1584 45.5749 49.336 44.7514 49.8076C42.999 50.8111 39.2514 49.5067 35.2098 46.0657C34.7465 45.6713 34.2798 45.2501 33.8117 44.8043C35.3785 43.1089 36.9445 41.1379 38.4728 38.949C41.1609 38.713 43.7006 38.3271 46.0038 37.8004C46.1172 38.2531 46.218 38.6971 46.3048 39.1312ZM23.2091 49.6342C21.4969 50.2324 20.1333 50.2495 19.309 49.7793C17.555 48.7784 16.8258 44.9148 17.8205 39.7321C17.9344 39.1386 18.07 38.5289 18.2263 37.9057C20.5042 38.404 23.0253 38.7626 25.7199 38.9787C27.2585 41.1207 28.8697 43.0895 30.4933 44.8134C30.1386 45.1522 29.7852 45.4748 29.4338 45.7788C27.2764 47.6446 25.1144 48.9684 23.2091 49.6342ZM15.1879 34.6408C12.4765 33.7239 10.2373 32.5322 8.70244 31.2318C7.32327 30.0633 6.62695 28.9031 6.62695 27.9618C6.62695 25.9585 9.64571 23.4033 14.6805 21.6665C15.2914 21.4558 15.9309 21.2572 16.5945 21.0707C17.2903 23.3101 18.2031 25.6514 19.3047 28.019C18.1889 30.4217 17.2631 32.8003 16.5605 35.066C16.0873 34.9314 15.629 34.7898 15.1879 34.6408ZM17.8767 16.5331C16.8317 11.2492 17.5257 7.26317 19.2722 6.26295C21.1325 5.19741 25.2461 6.71664 29.5818 10.5255C29.859 10.769 30.1372 11.0238 30.4162 11.2874C28.8006 13.0037 27.2041 14.9578 25.6792 17.0871C23.064 17.3269 20.5606 17.7122 18.2589 18.228C18.1142 17.6521 17.9861 17.0863 17.8767 16.5331ZM41.8628 22.393C41.3126 21.4527 40.7477 20.5346 40.1719 19.6416C41.946 19.8635 43.6459 20.1581 45.2422 20.5185C44.763 22.0382 44.1656 23.627 43.4625 25.2559C42.9581 24.3084 42.4246 23.3531 41.8628 22.393ZM32.0813 12.967C33.177 14.1415 34.2743 15.4527 35.3536 16.8754C34.266 16.8246 33.1649 16.7981 32.0548 16.7981C30.9551 16.7981 29.8622 16.824 28.7814 16.8739C29.8617 15.4644 30.9685 14.155 32.0813 12.967ZM22.2372 22.4092C21.6876 23.3522 21.164 24.3022 20.6675 25.2541C19.9757 23.631 19.3839 22.0348 18.9005 20.4937C20.4871 20.1424 22.1789 19.8552 23.9418 19.6375C23.3578 20.5387 22.7883 21.4635 22.2372 22.409V22.4092ZM23.9926 36.4537C22.1712 36.2527 20.4539 35.9802 18.8678 35.6386C19.3589 34.07 19.9637 32.4398 20.6702 30.7817C21.1679 31.7328 21.6936 32.6833 22.2466 33.6283H22.2467C22.81 34.591 23.3936 35.5341 23.9926 36.4537ZM32.147 43.1222C31.0212 41.9204 29.8982 40.5909 28.8014 39.1609C29.8661 39.2022 30.9516 39.2234 32.0548 39.2234C33.1882 39.2234 34.3086 39.1981 35.4115 39.1495C34.3286 40.6053 33.2353 41.9368 32.147 43.1222ZM43.4852 30.6972C44.2284 32.3732 44.8549 33.9949 45.3524 35.5368C43.7401 35.9007 41.9994 36.1938 40.1653 36.4116C40.7426 35.5065 41.3124 34.5727 41.8723 33.6122C42.4388 32.6403 42.9766 31.667 43.4852 30.6972ZM39.8146 32.438C38.9454 33.9291 38.053 35.3526 37.1471 36.6963C35.497 36.813 33.7923 36.8731 32.0548 36.8731C30.3244 36.8731 28.6411 36.8199 27.0202 36.7158C26.0778 35.3546 25.166 33.9269 24.3023 32.4508H24.3025C23.4411 30.9788 22.6483 29.4943 21.9299 28.0182C22.6481 26.5386 23.4388 25.0525 24.2953 23.5831L24.2951 23.5834C25.1538 22.1101 26.0576 20.6893 26.9913 19.3366C28.6451 19.2129 30.3409 19.1484 32.0547 19.1484H32.0548C33.7763 19.1484 35.4743 19.2134 37.1276 19.3381C38.0471 20.681 38.9447 22.0971 39.8068 23.5706C40.6787 25.0607 41.4797 26.5369 42.204 27.9848C41.4818 29.4575 40.6827 30.9486 39.8146 32.438ZM44.715 6.19303C46.5771 7.25544 47.3012 11.5401 46.1313 17.1587C46.0566 17.5172 45.9726 17.8824 45.8813 18.2524C43.5744 17.7258 41.0692 17.3339 38.4464 17.0904C36.9184 14.9377 35.3351 12.9806 33.7458 11.2863C34.173 10.8796 34.5997 10.4918 35.0247 10.1259C39.1299 6.5912 42.9668 5.19564 44.715 6.19303Z" fill="#FCFCFC"/>
<path d="M32.0543 23.0488C34.7966 23.0488 37.0198 25.2483 37.0198 27.9615C37.0198 30.6747 34.7966 32.8742 32.0543 32.8742C29.312 32.8742 27.0889 30.6747 27.0889 27.9615C27.0889 25.2483 29.312 23.0488 32.0543 23.0488Z" fill="#7E7E7E"/>
</svg>
