<svg width="57" height="62" viewBox="0 0 57 62"  xmlns="http://www.w3.org/2000/svg">
<path d="M49.3773 0.555176C53.4836 2.66887 57.0106 8.2156 56.8337 15.7422C56.297 25.0161 49.6407 33.0086 42.3984 40.3724C41.9929 31.392 40.0598 25.6689 37.0415 17.6209C34.1919 9.51063 42.5232 0.814761 49.3773 0.555176Z" />
<path d="M27.1653 40.0562C29.3703 37.2855 30.9331 34.8181 32.0237 32.5889C39.4945 36.5346 37.7317 35.7978 41.3348 40.0018C41.347 40.1327 41.3584 40.2631 41.3693 40.3931C41.6682 46.2222 37.4588 59.6979 20.8836 61.5446C19.7362 52.4897 23.4663 44.7659 27.1653 40.0562Z" />
<path d="M0.491098 6.18496C12.301 1.46405 25.0113 6.30004 32.3491 16.3759C33.0591 17.3504 33.7322 18.3629 34.3672 19.4048C35.5138 26.7987 34.6394 30.905 32.4076 33.0819C30.9402 32.3339 29.3745 31.6706 27.7031 31.0574C23.8176 29.6314 20.2312 28.6876 15.1096 27.1558C2.94802 23.803 -0.0511069 13.2689 0.491098 6.18496Z"   />
<path d="M33.9159 18.6807C33.9934 18.8022 34.07 18.9229 34.1455 19.0453L34.2386 19.1963C34.4281 19.5038 34.6139 19.8131 34.7972 20.1262L34.8281 20.1784L34.8773 20.2631L34.9221 20.3414L35.0533 20.5689L35.0623 20.5854L35.24 20.9003L35.2456 20.9094C35.374 21.1387 35.5008 21.3688 35.6255 21.6008L35.641 21.6302L35.7796 21.8898L35.7833 21.8965L35.9355 22.1853L35.9792 22.27L36.0639 22.435L36.1677 22.6382L36.2682 22.8354C36.3701 23.0396 36.4713 23.2441 36.5706 23.4484L36.5962 23.499C36.7753 23.8694 36.9499 24.2419 37.1201 24.6165L37.2497 24.9029L37.2623 24.9314L37.3453 25.1174L37.442 25.3375L37.4965 25.4647L37.5841 25.668L37.6468 25.8143L37.7791 26.1292L37.7881 26.1513L37.9294 26.4936L37.9466 26.5351C38.0972 26.9053 38.2429 27.2755 38.3842 27.6479L38.3979 27.6823L38.5145 27.9945L38.5217 28.0117L38.5893 28.1959C38.6641 28.4002 38.7379 28.6048 38.8107 28.8098L38.839 28.8901C38.9191 29.1191 38.9984 29.3495 39.075 29.5785L39.0995 29.6512C39.1715 29.8667 39.2408 30.0821 39.3101 30.2975L39.3439 30.4034L39.3521 30.4282L39.4613 30.7772L39.4657 30.7928L39.5671 31.126L39.6682 31.4694L39.6711 31.4768L39.755 31.7667L39.7814 31.8608L39.8322 32.0403C39.8896 32.2473 39.9461 32.4536 40.0009 32.6608L40.0419 32.8153L40.1212 33.1208L40.1247 33.1358C40.2214 33.5113 40.3124 33.8869 40.3991 34.2615L40.4073 34.3003L40.4164 34.3398C40.5294 34.8342 40.6334 35.3269 40.729 35.8175L40.7382 35.8663C40.8845 36.6207 41.0109 37.3789 41.1173 38.1401L41.1191 38.1502C41.152 38.3821 41.182 38.6131 41.2102 38.8444L41.2219 38.9436L41.2604 39.2741V39.275L41.293 39.5808L41.3041 39.682L41.3277 39.9242L41.337 40.0217L41.3405 40.0614L41.3696 40.3937C38.7606 36.9994 35.6438 34.6601 31.9038 32.83C34.9221 26.802 34.4983 22.5069 33.9159 18.6807Z" />
</svg>
