<svg width="90" height="26" viewBox="0 0 90 26" fill="none" xmlns="http://www.w3.org/2000/svg">
<path fill-rule="evenodd" clip-rule="evenodd" d="M7.21677 6.53154C7.09961 6.32091 6.87939 6.19189 6.64182 6.19189H1.32414C0.852251 6.19189 0.41617 6.44663 0.179684 6.86126C-0.057887 7.2759 -0.0600618 7.78647 0.174255 8.20331C2.07807 11.6026 5.93562 18.4882 8.07918 22.3147C9.02078 23.9953 10.7782 25.0341 12.6809 25.0341H16.4441C16.6795 25.0341 16.8975 24.9062 17.0157 24.6989C17.134 24.4916 17.1351 24.2368 17.019 24.0284C15.0349 20.4853 8.42523 8.68741 7.21677 6.53154Z" fill="#129C6A"/>
<path fill-rule="evenodd" clip-rule="evenodd" d="M9.60501 2.71938C8.66341 1.03879 6.90603 0 5.00329 0H1.24012C1.00472 0 0.786687 0.127923 0.668444 0.33524C0.549116 0.542557 0.548028 0.798391 0.665186 1.00681C2.64928 4.54884 9.25895 16.3472 10.4674 18.503C10.5846 18.7137 10.8048 18.8427 11.0424 18.8427H16.36C16.8319 18.8427 17.2669 18.5879 17.5045 18.1733C17.741 17.7587 17.7432 17.2481 17.5099 16.8313C15.6061 13.4315 11.7486 6.54593 9.60501 2.71938Z" fill="#68F7C3"/>
<path d="M33.5006 6.72363V18.6973H31.3494L26.2248 11.1611H26.1391V18.6973H23.6484V6.72363H25.8343L30.9188 14.2543H31.0218V6.72363H33.5006Z" fill="#F1F1F1"/>
<path d="M38.7235 18.8726C37.8145 18.8726 37.0334 18.6852 36.3793 18.3091C35.7251 17.9331 35.2218 17.3983 34.8692 16.7068C34.5167 16.0154 34.3398 15.195 34.3398 14.2477C34.3398 13.3247 34.5167 12.5131 34.8692 11.8161C35.2218 11.1181 35.7197 10.5744 36.3619 10.1841C37.0041 9.7948 37.7591 9.59961 38.6248 9.59961C39.2084 9.59961 39.7519 9.69444 40.2563 9.88301C40.7597 10.0727 41.2012 10.3561 41.5787 10.7343C41.9562 11.1126 42.2502 11.5868 42.4617 12.158C42.6722 12.7292 42.7774 13.3964 42.7774 14.1606V14.8443H35.3183V13.3004H40.4711C40.4711 12.9421 40.3952 12.6245 40.2411 12.3477C40.0882 12.0709 39.8767 11.8536 39.6055 11.6959C39.3353 11.5382 39.0218 11.4588 38.666 11.4588C38.2939 11.4588 37.9652 11.546 37.6789 11.7191C37.3936 11.8933 37.1701 12.1249 37.0095 12.4149C36.8479 12.7061 36.7655 13.0281 36.7622 13.3832V14.8509C36.7622 15.2942 36.8436 15.6791 37.0063 16.0022C37.169 16.3253 37.4001 16.5756 37.6995 16.7509C37.9978 16.9263 38.3525 17.0134 38.7637 17.0134C39.0359 17.0134 39.2844 16.9748 39.5111 16.8965C39.7367 16.8193 39.9309 16.7013 40.0914 16.5458C40.2531 16.3903 40.3757 16.1996 40.4603 15.9735L42.7264 16.1246C42.6114 16.6782 42.376 17.1612 42.0213 17.5725C41.6666 17.9838 41.211 18.3025 40.6523 18.5308C40.0947 18.7591 39.4514 18.8726 38.7235 18.8726Z" fill="#F1F1F1"/>
<path d="M46.0876 18.8671C45.5246 18.8671 45.0223 18.7668 44.5808 18.5661C44.1404 18.3654 43.7922 18.0676 43.5372 17.6717C43.2823 17.2758 43.1543 16.7818 43.1543 16.1896C43.1543 15.6901 43.2443 15.2711 43.4244 14.9325C43.6045 14.5929 43.8507 14.3205 44.161 14.1132C44.4712 13.9069 44.8249 13.7515 45.2219 13.6456C45.619 13.5408 46.0355 13.467 46.4727 13.4239C46.9869 13.3688 47.4013 13.317 47.7159 13.2685C48.0305 13.2199 48.2583 13.1472 48.4004 13.049C48.5414 12.952 48.613 12.8075 48.613 12.6167V12.5814C48.613 12.212 48.4991 11.9253 48.2702 11.7224C48.0424 11.5195 47.7191 11.418 47.3015 11.418C46.86 11.418 46.5096 11.5162 46.2492 11.7136C45.9878 11.9099 45.8153 12.1569 45.7307 12.4535L43.4646 12.2661C43.5806 11.7202 43.8063 11.2482 44.1436 10.8479C44.481 10.4487 44.9171 10.1411 45.4519 9.92492C45.9867 9.70768 46.6072 9.59961 47.3134 9.59961C47.8038 9.59961 48.2746 9.65806 48.7247 9.77495C49.176 9.89184 49.5763 10.0738 49.9267 10.3186C50.2782 10.5645 50.5548 10.8799 50.7577 11.2637C50.9616 11.6474 51.0625 12.1062 51.0625 12.6399V18.6973H48.7389V17.4523H48.6705C48.5284 17.7324 48.3386 17.9794 48.101 18.1922C47.8634 18.404 47.577 18.5694 47.244 18.6885C46.9099 18.8076 46.5248 18.8671 46.0876 18.8671ZM46.7895 17.1479C47.1496 17.1479 47.4685 17.0752 47.7441 16.9285C48.0207 16.7829 48.2366 16.5844 48.3939 16.3352C48.5512 16.086 48.6304 15.8037 48.6304 15.4872V14.5344C48.5534 14.5851 48.4492 14.6315 48.3169 14.6723C48.1845 14.7131 48.0359 14.7495 47.871 14.7836C47.7061 14.8167 47.5412 14.8454 47.3763 14.8708C47.2114 14.8961 47.0617 14.9182 46.9272 14.938C46.6398 14.981 46.3892 15.0494 46.1744 15.1431C45.9596 15.2358 45.7925 15.3615 45.6732 15.5203C45.555 15.678 45.4953 15.8732 45.4953 16.1069C45.4953 16.4466 45.6168 16.7046 45.8609 16.8822C46.1039 17.0597 46.4141 17.1479 46.7895 17.1479Z" fill="#F1F1F1"/>
<path d="M56.8561 9.71641V11.5878H51.5352V9.71641H56.8561ZM52.7436 7.56494H55.1931V15.9381C55.1931 16.1675 55.2278 16.3461 55.2972 16.473C55.3656 16.5998 55.4632 16.688 55.588 16.7387C55.7116 16.7894 55.857 16.8148 56.0219 16.8148C56.1369 16.8148 56.2519 16.8038 56.3669 16.7828C56.4818 16.7608 56.5697 16.7442 56.6315 16.7332L57.0166 18.5869C56.8941 18.6255 56.7216 18.6707 56.4992 18.7237C56.2768 18.7766 56.0067 18.8086 55.6878 18.8207C55.0976 18.8439 54.5813 18.7634 54.1376 18.5803C53.695 18.3973 53.3511 18.1127 53.1059 17.7268C52.8608 17.3408 52.7393 16.8534 52.7436 16.2656V7.56494Z" fill="#F1F1F1"/>
<path d="M64.0749 10.1673C64.0283 9.69531 63.8308 9.3292 63.4826 9.06784C63.1333 8.80649 62.6603 8.67636 62.0615 8.67636C61.6547 8.67636 61.3119 8.73371 61.032 8.8484C60.7522 8.96308 60.5385 9.12187 60.3909 9.32478C60.2434 9.52769 60.1696 9.75706 60.1696 10.0151C60.162 10.229 60.2065 10.4165 60.3042 10.5764C60.4018 10.7363 60.5374 10.873 60.7099 10.9888C60.8824 11.1035 61.082 11.2028 61.3087 11.2866C61.5343 11.3704 61.7762 11.441 62.0333 11.4994L63.091 11.7575C63.6052 11.8743 64.0771 12.0298 64.5056 12.225C64.9352 12.4202 65.3072 12.6595 65.6218 12.944C65.9364 13.2285 66.1805 13.5637 66.3552 13.9497C66.5298 14.3357 66.6188 14.7779 66.6231 15.2774C66.6188 16.0096 66.4354 16.6437 66.0731 17.1797C65.7108 17.7156 65.1901 18.1313 64.5088 18.4258C63.8287 18.7202 63.0085 18.8669 62.0496 18.8669C61.0993 18.8669 60.2716 18.7191 59.5687 18.4225C58.8646 18.1258 58.3168 17.6869 57.923 17.1036C57.5303 16.5213 57.3242 15.799 57.3047 14.9378H59.7151C59.7422 15.3392 59.8561 15.6733 60.0568 15.9402C60.2586 16.207 60.5287 16.4088 60.8682 16.5423C61.2078 16.6768 61.5918 16.7441 62.0214 16.7441C62.4434 16.7441 62.81 16.6823 63.1225 16.5577C63.4349 16.4331 63.6779 16.2589 63.8504 16.0372C64.0228 15.8145 64.1096 15.5597 64.1096 15.2708C64.1096 15.0017 64.0315 14.7757 63.8764 14.5926C63.7213 14.4096 63.4945 14.2541 63.1973 14.1251C62.9001 13.996 62.5367 13.8791 62.1082 13.7744L60.8249 13.4469C59.8323 13.2009 59.0479 12.8172 58.473 12.2956C57.897 11.7729 57.6117 11.0693 57.616 10.1838C57.6117 9.45932 57.8026 8.82634 58.1877 8.28379C58.5728 7.74234 59.1033 7.31888 59.778 7.01563C60.4528 6.71127 61.2197 6.55908 62.0789 6.55908C62.9532 6.55908 63.7169 6.71127 64.3711 7.01563C65.0252 7.31888 65.534 7.74234 65.8985 8.28379C66.2619 8.82634 66.4506 9.4538 66.4615 10.1673H64.0749Z" fill="#F1F1F1"/>
<path d="M71.426 18.8726C70.5321 18.8726 69.7608 18.6785 69.111 18.2915C68.4612 17.9033 67.9601 17.3619 67.6064 16.666C67.2539 15.9702 67.0781 15.1619 67.0781 14.2422C67.0781 13.3148 67.2539 12.5032 67.6064 11.8073C67.9601 11.1115 68.4612 10.57 69.111 10.1819C69.7608 9.7937 70.5321 9.59961 71.426 9.59961C72.3188 9.59961 73.0912 9.7937 73.741 10.1819C74.3907 10.57 74.8919 11.1115 75.2445 11.8073C75.5981 12.5032 75.7739 13.3148 75.7739 14.2422C75.7739 15.1619 75.5981 15.9702 75.2445 16.666C74.8919 17.3619 74.3907 17.9033 73.741 18.2915C73.0912 18.6785 72.3188 18.8726 71.426 18.8726ZM71.4368 16.9439C71.8436 16.9439 72.1832 16.8259 72.4555 16.5899C72.7278 16.354 72.9339 16.0319 73.0738 15.6217C73.2138 15.2126 73.2832 14.7473 73.2832 14.2245C73.2832 13.7029 73.2138 13.2365 73.0738 12.8274C72.9339 12.4182 72.7278 12.094 72.4555 11.8569C72.1832 11.6187 71.8436 11.4996 71.4368 11.4996C71.0268 11.4996 70.6829 11.6187 70.4052 11.8569C70.1275 12.094 69.9181 12.4182 69.7782 12.8274C69.6382 13.2365 69.5677 13.7029 69.5677 14.2245C69.5677 14.7473 69.6382 15.2126 69.7782 15.6217C69.9181 16.0319 70.1275 16.354 70.4052 16.5899C70.6829 16.8259 71.0268 16.9439 71.4368 16.9439Z" fill="#F1F1F1"/>
<path d="M81.3155 9.71627V11.5876H75.8633V9.71627H81.3155ZM77.1108 18.6971V9.06786C77.1108 8.41724 77.2366 7.87688 77.4883 7.44791C77.7389 7.01894 78.0828 6.69804 78.52 6.48301C78.9571 6.26907 79.454 6.16211 80.0105 6.16211C80.3858 6.16211 80.7297 6.19078 81.0421 6.24922C81.3545 6.30767 81.5878 6.36061 81.7418 6.40692L81.3046 8.27829C81.2081 8.24741 81.0899 8.21763 80.9499 8.19006C80.81 8.1636 80.6678 8.14926 80.5214 8.14926C80.1612 8.14926 79.9107 8.23418 79.7686 8.404C79.6264 8.57383 79.5559 8.81091 79.5559 9.11417V18.6971H77.1108Z" fill="#F1F1F1"/>
<path d="M86.6988 9.71641V11.5878H81.3789V9.71641H86.6988ZM82.5863 7.56494H85.0368V15.9381C85.0368 16.1675 85.0705 16.3461 85.1399 16.473C85.2093 16.5998 85.3059 16.688 85.4306 16.7387C85.5554 16.7894 85.6996 16.8148 85.8645 16.8148C85.9795 16.8148 86.0945 16.8038 86.2095 16.7828C86.3245 16.7608 86.4134 16.7442 86.4742 16.7332L86.8593 18.5869C86.7367 18.6255 86.5642 18.6707 86.3419 18.7237C86.1195 18.7766 85.8494 18.8086 85.5315 18.8207C84.9403 18.8439 84.4239 18.7634 83.9813 18.5803C83.5377 18.3973 83.1938 18.1127 82.9486 17.7268C82.7034 17.3408 82.5819 16.8534 82.5863 16.2656V7.56494Z" fill="#F1F1F1"/>
</svg>
