<svg width="90" height="26" viewBox="0 0 90 26" fill="none" xmlns="http://www.w3.org/2000/svg">
<path fill-rule="evenodd" clip-rule="evenodd" d="M7.21677 6.53154C7.09961 6.32091 6.87939 6.19189 6.64182 6.19189H1.32414C0.852251 6.19189 0.41617 6.44663 0.179684 6.86126C-0.057887 7.2759 -0.0600618 7.78647 0.174255 8.20331C2.07807 11.6026 5.93562 18.4882 8.07918 22.3147C9.02078 23.9953 10.7782 25.0341 12.6809 25.0341H16.4441C16.6795 25.0341 16.8975 24.9062 17.0157 24.6989C17.134 24.4916 17.1351 24.2368 17.019 24.0284C15.0349 20.4853 8.42523 8.68741 7.21677 6.53154Z" fill="#97A1FD"/>
<path fill-rule="evenodd" clip-rule="evenodd" d="M9.60403 2.71938C8.66243 1.03879 6.90505 0 5.00232 0H1.23914C1.00374 0 0.78571 0.127923 0.667467 0.33524C0.548139 0.542557 0.547051 0.798391 0.664209 1.00681C2.64831 4.54884 9.25798 16.3472 10.4664 18.503C10.5836 18.7137 10.8038 18.8427 11.0414 18.8427H16.3591C16.8309 18.8427 17.266 18.5879 17.5035 18.1733C17.74 17.7587 17.7422 17.2481 17.509 16.8313C15.6051 13.4315 11.7476 6.54593 9.60403 2.71938Z" fill="#4C5EFE"/>
<path d="M33.5006 6.72363V18.6973H31.3494L26.2248 11.1611H26.1391V18.6973H23.6484V6.72363H25.8343L30.9188 14.2543H31.0218V6.72363H33.5006Z" fill="#1E1E1E"/>
<path d="M38.7245 18.8726C37.8154 18.8726 37.0344 18.6852 36.3802 18.3091C35.7261 17.9331 35.2228 17.3983 34.8702 16.7068C34.5176 16.0154 34.3408 15.195 34.3408 14.2477C34.3408 13.3247 34.5176 12.5131 34.8702 11.8161C35.2228 11.1181 35.7207 10.5744 36.3629 10.1841C37.0051 9.7948 37.7601 9.59961 38.6258 9.59961C39.2094 9.59961 39.7529 9.69444 40.2573 9.88301C40.7607 10.0727 41.2022 10.3561 41.5797 10.7343C41.9572 11.1126 42.2512 11.5868 42.4627 12.158C42.6732 12.7292 42.7784 13.3964 42.7784 14.1606V14.8443H35.3193V13.3004H40.4721C40.4721 12.9421 40.3962 12.6245 40.2421 12.3477C40.0892 12.0709 39.8776 11.8536 39.6064 11.6959C39.3363 11.5382 39.0228 11.4588 38.667 11.4588C38.2949 11.4588 37.9662 11.546 37.6798 11.7191C37.3945 11.8933 37.1711 12.1249 37.0105 12.4149C36.8489 12.7061 36.7664 13.0281 36.7632 13.3832V14.8509C36.7632 15.2942 36.8445 15.6791 37.0073 16.0022C37.17 16.3253 37.401 16.5756 37.7004 16.7509C37.9988 16.9263 38.3535 17.0134 38.7646 17.0134C39.0369 17.0134 39.2853 16.9748 39.5121 16.8965C39.7377 16.8193 39.9319 16.7013 40.0924 16.5458C40.2541 16.3903 40.3766 16.1996 40.4613 15.9735L42.7274 16.1246C42.6124 16.6782 42.377 17.1612 42.0223 17.5725C41.6676 17.9838 41.2119 18.3025 40.6533 18.5308C40.0957 18.7591 39.4524 18.8726 38.7245 18.8726Z" fill="#1E1E1E"/>
<path d="M46.0876 18.8671C45.5246 18.8671 45.0223 18.7668 44.5808 18.5661C44.1404 18.3654 43.7922 18.0676 43.5372 17.6717C43.2823 17.2758 43.1543 16.7818 43.1543 16.1896C43.1543 15.6901 43.2443 15.2711 43.4244 14.9325C43.6045 14.5929 43.8507 14.3205 44.161 14.1132C44.4712 13.9069 44.8249 13.7515 45.2219 13.6456C45.619 13.5408 46.0355 13.467 46.4727 13.4239C46.9869 13.3688 47.4013 13.317 47.7159 13.2685C48.0305 13.2199 48.2583 13.1472 48.4004 13.049C48.5414 12.952 48.613 12.8075 48.613 12.6167V12.5814C48.613 12.212 48.4991 11.9253 48.2702 11.7224C48.0424 11.5195 47.7191 11.418 47.3015 11.418C46.86 11.418 46.5096 11.5162 46.2492 11.7136C45.9878 11.9099 45.8153 12.1569 45.7307 12.4535L43.4646 12.2661C43.5806 11.7202 43.8063 11.2482 44.1436 10.8479C44.481 10.4487 44.9171 10.1411 45.4519 9.92492C45.9867 9.70768 46.6072 9.59961 47.3134 9.59961C47.8038 9.59961 48.2746 9.65806 48.7247 9.77495C49.176 9.89184 49.5763 10.0738 49.9267 10.3186C50.2782 10.5645 50.5548 10.8799 50.7577 11.2637C50.9616 11.6474 51.0625 12.1062 51.0625 12.6399V18.6973H48.7389V17.4523H48.6705C48.5284 17.7324 48.3386 17.9794 48.101 18.1922C47.8634 18.404 47.577 18.5694 47.244 18.6885C46.9099 18.8076 46.5248 18.8671 46.0876 18.8671ZM46.7895 17.1479C47.1496 17.1479 47.4685 17.0752 47.7441 16.9285C48.0207 16.7829 48.2366 16.5844 48.3939 16.3352C48.5512 16.086 48.6304 15.8037 48.6304 15.4872V14.5344C48.5534 14.5851 48.4492 14.6315 48.3169 14.6723C48.1845 14.7131 48.0359 14.7495 47.871 14.7836C47.7061 14.8167 47.5412 14.8454 47.3763 14.8708C47.2114 14.8961 47.0617 14.9182 46.9272 14.938C46.6398 14.981 46.3892 15.0494 46.1744 15.1431C45.9596 15.2358 45.7925 15.3615 45.6732 15.5203C45.555 15.678 45.4953 15.8732 45.4953 16.1069C45.4953 16.4466 45.6168 16.7046 45.8609 16.8822C46.1039 17.0597 46.4141 17.1479 46.7895 17.1479Z" fill="#1E1E1E"/>
<path d="M56.8563 9.71641V11.5878H51.5354V9.71641H56.8563ZM52.7439 7.56494H55.1934V15.9381C55.1934 16.1675 55.2281 16.3461 55.2975 16.473C55.3658 16.5998 55.4635 16.688 55.5882 16.7387C55.7119 16.7894 55.8572 16.8148 56.0221 16.8148C56.1371 16.8148 56.2521 16.8038 56.3671 16.7828C56.4821 16.7608 56.5699 16.7442 56.6318 16.7332L57.0169 18.5869C56.8943 18.6255 56.7218 18.6707 56.4994 18.7237C56.2771 18.7766 56.0069 18.8086 55.688 18.8207C55.0979 18.8439 54.5815 18.7634 54.1378 18.5803C53.6952 18.3973 53.3514 18.1127 53.1062 17.7268C52.861 17.3408 52.7395 16.8534 52.7439 16.2656V7.56494Z" fill="#1E1E1E"/>
<path d="M64.0756 10.1673C64.029 9.69531 63.8316 9.3292 63.4833 9.06784C63.134 8.80649 62.6611 8.67636 62.0623 8.67636C61.6555 8.67636 61.3127 8.73371 61.0328 8.8484C60.7529 8.96308 60.5392 9.12187 60.3917 9.32478C60.2441 9.52769 60.1704 9.75706 60.1704 10.0151C60.1628 10.229 60.2073 10.4165 60.3049 10.5764C60.4025 10.7363 60.5381 10.873 60.7106 10.9888C60.8831 11.1035 61.0827 11.2028 61.3094 11.2866C61.535 11.3704 61.777 11.441 62.034 11.4994L63.0917 11.7575C63.6059 11.8743 64.0778 12.0298 64.5063 12.225C64.9359 12.4202 65.308 12.6595 65.6226 12.944C65.9372 13.2285 66.1812 13.5637 66.3559 13.9497C66.5305 14.3357 66.6195 14.7779 66.6238 15.2774C66.6195 16.0096 66.4362 16.6437 66.0738 17.1797C65.7115 17.7156 65.1908 18.1313 64.5096 18.4258C63.8294 18.7202 63.0093 18.8669 62.0503 18.8669C61.1 18.8669 60.2723 18.7191 59.5694 18.4225C58.8654 18.1258 58.3175 17.6869 57.9238 17.1036C57.5311 16.5213 57.3249 15.799 57.3054 14.9378H59.7158C59.743 15.3392 59.8569 15.6733 60.0576 15.9402C60.2593 16.207 60.5294 16.4088 60.869 16.5423C61.2085 16.6768 61.5925 16.7441 62.0221 16.7441C62.4441 16.7441 62.8108 16.6823 63.1232 16.5577C63.4356 16.4331 63.6786 16.2589 63.8511 16.0372C64.0236 15.8145 64.1103 15.5597 64.1103 15.2708C64.1103 15.0017 64.0322 14.7757 63.8771 14.5926C63.722 14.4096 63.4953 14.2541 63.198 14.1251C62.9008 13.996 62.5374 13.8791 62.1089 13.7744L60.8256 13.4469C59.833 13.2009 59.0487 12.8172 58.4737 12.2956C57.8977 11.7729 57.6124 11.0693 57.6168 10.1838C57.6124 9.45932 57.8033 8.82634 58.1884 8.28379C58.5735 7.74234 59.104 7.31888 59.7788 7.01563C60.4535 6.71127 61.2204 6.55908 62.0796 6.55908C62.9539 6.55908 63.7177 6.71127 64.3718 7.01563C65.0259 7.31888 65.5347 7.74234 65.8992 8.28379C66.2626 8.82634 66.4514 9.4538 66.4622 10.1673H64.0756Z" fill="#1E1E1E"/>
<path d="M71.427 18.8726C70.5331 18.8726 69.7618 18.6785 69.112 18.2915C68.4622 17.9033 67.9611 17.3619 67.6074 16.666C67.2549 15.9702 67.0791 15.1619 67.0791 14.2422C67.0791 13.3148 67.2549 12.5032 67.6074 11.8073C67.9611 11.1115 68.4622 10.57 69.112 10.1819C69.7618 9.7937 70.5331 9.59961 71.427 9.59961C72.3198 9.59961 73.0921 9.7937 73.7419 10.1819C74.3917 10.57 74.8929 11.1115 75.2455 11.8073C75.5991 12.5032 75.7748 13.3148 75.7748 14.2422C75.7748 15.1619 75.5991 15.9702 75.2455 16.666C74.8929 17.3619 74.3917 17.9033 73.7419 18.2915C73.0921 18.6785 72.3198 18.8726 71.427 18.8726ZM71.4378 16.9439C71.8446 16.9439 72.1842 16.8259 72.4565 16.5899C72.7287 16.354 72.9348 16.0319 73.0748 15.6217C73.2147 15.2126 73.2841 14.7473 73.2841 14.2245C73.2841 13.7029 73.2147 13.2365 73.0748 12.8274C72.9348 12.4182 72.7287 12.094 72.4565 11.8569C72.1842 11.6187 71.8446 11.4996 71.4378 11.4996C71.0278 11.4996 70.6839 11.6187 70.4062 11.8569C70.1285 12.094 69.9191 12.4182 69.7792 12.8274C69.6392 13.2365 69.5687 13.7029 69.5687 14.2245C69.5687 14.7473 69.6392 15.2126 69.7792 15.6217C69.9191 16.0319 70.1285 16.354 70.4062 16.5899C70.6839 16.8259 71.0278 16.9439 71.4378 16.9439Z" fill="#1E1E1E"/>
<path d="M81.3155 9.71627V11.5876H75.8633V9.71627H81.3155ZM77.1108 18.6971V9.06786C77.1108 8.41724 77.2366 7.87688 77.4883 7.44791C77.7389 7.01894 78.0828 6.69804 78.52 6.48301C78.9571 6.26907 79.454 6.16211 80.0105 6.16211C80.3858 6.16211 80.7297 6.19078 81.0421 6.24922C81.3545 6.30767 81.5878 6.36061 81.7418 6.40692L81.3046 8.27829C81.2081 8.24741 81.0899 8.21763 80.9499 8.19006C80.81 8.1636 80.6678 8.14926 80.5214 8.14926C80.1612 8.14926 79.9107 8.23418 79.7686 8.404C79.6264 8.57383 79.5559 8.81091 79.5559 9.11417V18.6971H77.1108Z" fill="#1E1E1E"/>
<path d="M86.6997 9.71641V11.5878H81.3799V9.71641H86.6997ZM82.5872 7.56494H85.0378V15.9381C85.0378 16.1675 85.0714 16.3461 85.1409 16.473C85.2103 16.5998 85.3068 16.688 85.4316 16.7387C85.5563 16.7894 85.7006 16.8148 85.8655 16.8148C85.9805 16.8148 86.0955 16.8038 86.2105 16.7828C86.3255 16.7608 86.4144 16.7442 86.4752 16.7332L86.8603 18.5869C86.7377 18.6255 86.5652 18.6707 86.3428 18.7237C86.1204 18.7766 85.8503 18.8086 85.5325 18.8207C84.9413 18.8439 84.4249 18.7634 83.9823 18.5803C83.5386 18.3973 83.1947 18.1127 82.9496 17.7268C82.7044 17.3408 82.5829 16.8534 82.5872 16.2656V7.56494Z" fill="#1E1E1E"/>
</svg>
